<?xml version="1.0" encoding="utf-8"?>
<!-- Generator: Adobe Illustrator 23.0.1, SVG Export Plug-In . SVG Version: 6.00 Build 0)  -->
<svg version="1.1" id="Layer_1" xmlns="http://www.w3.org/2000/svg" xmlns:xlink="http://www.w3.org/1999/xlink" x="0px" y="0px"
	 viewBox="0 0 713 509.8" style="enable-background:new 0 0 713 509.8;" xml:space="preserve">
<style type="text/css">
	.st0{fill-rule:evenodd;clip-rule:evenodd;fill:#FFA9A4;}
	.st1{fill-opacity:7.000000e-02;}
	.st2{fill:#E1E2E2;}
	.st3{fill-opacity:0.1;}
	.st4{fill-opacity:5.000000e-02;}
	.st5{fill-opacity:0.13;}
	.st6{fill:#FD9025;}
	.st7{fill:#0D293E;}
	.st8{fill:none;stroke:#000000;stroke-width:3;stroke-opacity:0.24;}
	.st9{fill-rule:evenodd;clip-rule:evenodd;fill:#BA796B;}
	.st10{fill-opacity:4.000000e-02;}
	.st11{fill:#193272;}
	.st12{fill:none;stroke:#193272;}
	.st13{fill:#2DCBB8;}
	.st14{fill-opacity:6.000000e-02;}
	.st15{fill:#F7F7F7;}
	.st16{fill:#FF9B52;}
	.st17{fill:#FFFFFF;fill-opacity:0.61;}
	.st18{fill:#FFFFFF;}
	.st19{fill:#2C8B74;}
	.st20{fill-opacity:0.18;}
	.st21{fill:none;stroke:#000000;stroke-width:0.6868;}
	.st22{fill-opacity:0.11;}
	.st23{fill:#183D45;}
	.st24{fill:none;stroke:#FFFFFF;stroke-width:0.4121;}
	.st25{fill:#285964;}
	.st26{fill:none;stroke:#FFFFFF;stroke-width:0.2747;}
	.st27{fill:#FFFFFF;stroke:#2DCBB8;stroke-width:4.274;}
	.st28{fill:none;stroke:#2DCBB8;stroke-width:2.8493;stroke-linecap:round;}
	.st29{fill:#F6F6F6;}
	.st30{fill:#FF7373;}
	.st31{fill:#FFF5DB;}
	.st32{fill:#C5C7FF;}
	.st33{fill:#7761FF;}
	.st34{fill:#41E1D8;}
	.st35{fill:#FFFFFF;fill-opacity:0.49;}
	.st36{fill-rule:evenodd;clip-rule:evenodd;fill:#FF9696;}
	.st37{fill:#1D1D1B;fill-opacity:6.000000e-02;}
</style>
<path class="st0" d="M586.2,110.8v21.5v7h-20.5v-7l1.5-8l1.3-6.6c-10.6-2.8-13.6-23.1-9.8-35.4c6.8-14.8,25.5-8.5,29.5,2
	c3.4,7.2,0.9,16.2-1.1,23.1v0C586.7,108.6,586.4,109.7,586.2,110.8z M641.9,312.7c-5.6,2.4-5.8,2.2-2-6.5l2-9.5v-15h11.5v15
	c0,0,5,7.9,5,12c0,8,0,10.7-1.3,11.8c-0.7,0.6-1.6,0.8-3.1,1.1c-0.2,0-0.4,0.1-0.6,0.1c-5.4,1.1-6.3-1-8.1-5.1h0l0,0l0,0
	c-0.5-1.2-1.1-2.5-1.9-3.9H641.9z M487.9,155.9c1.2-7.6,2.7-16.4-0.7-13.7c-2.3,1.8-2.6,3.7-2.8,4.9c-0.2,1-0.3,1.6-1.2,1.6
	c-0.5-9.7-3.6-24.9-6-22.5c-1.9,1.9-1.1,7.1-0.5,11.9l0,0c0.2,1.4,0.4,2.8,0.5,4.1c-2-1.2-9.7,2.1-12.5,6.5c-3.5,5.5,6,16,8,16.5
	c1,0.2,1.5,1,1.9,1.7c0.3,0.5,0.6,0.9,1.1,1.3l3,7.5l4.5,15l11.5-8.5l-7.5-22C487.5,158.8,487.7,157.4,487.9,155.9z M599,492.2
	c6-8.5,0-32,0-32v-2.5h18v50.5c0,2-52,0-52,0c0-1.2,0-2.5,8.5-6.5c0.5-0.3,2.1-0.6,4.2-1.1C584.2,499.2,595.8,496.7,599,492.2z
	 M543.3,460.2c0,0,5,24.6-4.5,34c-5.5,5.4-15.6,6.4-21.4,6.9c-2,0.2-3.5,0.3-4.1,0.6c-8.5,4-8.5,5.3-8.5,6.5c0,0,52,2,52,0
	c0-6.5,4-50.5,4-50.5h-17.5V460.2z"/>
<path class="st1" d="M579.2,134.3l5.5-25.5l1.5,1.5v27l-7,3.5V134.3z"/>
<path class="st2" d="M619.3,479.7c3-32,5.2-167.2,0-232c-5,0.7-17.9,1.9-22.5,2.4c-2.2,0.2-3.4-0.2-5.5,0c-14.9,1.2-20.4,1.1-30,0.5
	c-1.4-0.1-4.7-0.4-6-0.5c-7.5-0.7-10.9-1.5-14-2.4c0,0-4.1,61.8-4.5,101.5c-0.5,51,0,130.5,0,130.5h23.5l17.5-173.5
	c0,0,12.5,105.8,13.5,118.5c1,12.8,5.5,55,5.5,55H619.3z"/>
<path class="st3" d="M615.3,479.7h2.7c8-68.5,2.6-172,1.8-215.5c0,0-6.1,39.4-4.5,47S620.4,411.5,615.3,479.7z"/>
<path class="st4" d="M543.8,412.2c0-52,2-163,2-163l-4-2c-2.5,13-7.5,110.5-4.5,195C537.3,442.2,543.8,421,543.8,412.2z"/>
<path class="st5" d="M578.8,300.7l-16,148.5l-1.5,10.5l-1,15h-9.5v-22l5.5-45l7.5-44L578.8,300.7z"/>
<path class="st6" d="M623.3,138.2l-35-11.5c-11.2,6.8-19.7,2.8-22.5,0l-32,8c-0.4,4.8-16.2,48.7-22.5,67
	c-3.5-10.8-9.5-28.5-13.2-38.5l1.7-2l-2.5-8l-2.5,2.5c-0.4,2-13.8,18.2-20.5,26l-2.5,3l2.5,5.5l2.6-2c13.3,31.6,24.9,64.7,39.4,60
	c17-5.5,23-32.5,28-51.5c-4,16-5.7,62-5,74.5c14,13.5,62.5,15,81,5v-78c4.8,8.8,10.7,52.7,13.5,81l1.5,13l28,2l2.5-12.5h-2.5
	C663.3,236.2,639.1,171.3,623.3,138.2z"/>
<path class="st7" d="M594.7,72.8c10.9,14.2-1,29.4-8.1,36.4h-2.4c1.4-2.7,3-6.4,3-10.4c0-4-3.6,2.4-4.5-1.5c-1.2-5.1,5-16.5-4-15.4
	c-7.5,0.9-7.2-1.2-14.2,0c0,0-5.8,2.1-9.8-2.6c-4-4.7-5.3-11.2-0.2-15.1c5.1-15.3,19.8-4.9,25.3,2.2C583,64.9,591.2,70.8,594.7,72.8
	z"/>
<path d="M617,508.7h-52c0-3.5,5.5-9.5,34-16c9,4.8,13.8,0.7,18,0V508.7z"/>
<path d="M557.8,508.7h-54c0-6,8.5-9,35.3-16c9.3,4.8,14.4,0.7,18.7,0V508.7z"/>
<path class="st8" d="M51,508.3h632"/>
<path class="st9" d="M145.7,114.2v21.5v7h20.5l1-7c0,0-2.5-3-2.5-6.5v-8.8c8.5-2,8.4-14.7,8.3-26.9c0-1.3,0-2.5,0-3.8
	c-6.8-14.8-25.3-12.5-29.3-2c-3.4,7.2-0.9,16.2,1.1,23.1l0,0C145.1,112,145.4,113.1,145.7,114.2z M89,324.4c-3-1.1-4.3-3.9-6.2-7.9
	c-0.7-1.4-1.4-2.9-2.3-4.6L79,298.3v-15h11.5c0,0-4.4,9.1-2.5,16c0.3,1.1,0.6,2,0.9,2.9v0l0,0l0,0v0c0.4,1.4,0.9,3,1.6,5.6
	c1.2,4.3,0.5,4.7,0,5.1l0,0l-4-5.1c0.5,6.6,2.3,11.2,3.4,13.9C91,324.4,91.4,325.3,89,324.4z M244.8,155.4
	c-1.2-7.6-2.7-16.4,0.7-13.7c2.3,1.8,2.6,3.7,2.8,4.9c0.2,1,0.3,1.6,1.2,1.6c0.5-9.7,3.6-24.9,6-22.5c1.9,1.9,1.1,7.1,0.5,11.9v0
	c-0.2,1.4-0.4,2.8-0.5,4.1c2-1.2,9.7,2.1,12.5,6.5c3.5,5.5-6,16-8,16.5c-1,0.2-1.5,1-1.9,1.7c-0.3,0.5-0.6,0.9-1.1,1.3l-3,7.5
	l-4.5,15l-11.5-8.5l7.5-22C245.3,158.4,245.1,156.9,244.8,155.4z M126,490.7c6-8.5,0-32,0-32v-2.5h18v50.5c0,2-52,0-52,0
	c0-1.2,0-2.5,8.5-6.5c0.5-0.3,2.1-0.6,4.2-1.1C111.2,497.7,122.8,495.2,126,490.7z M193.5,459.7c0,0-5,24.6,4.5,34
	c5.5,5.4,15.6,6.4,21.4,6.9c2,0.2,3.5,0.3,4.1,0.6c8.5,4,8.5,5.3,8.5,6.5c0,0-52,2-52,0c0-6.5-4-50.5-4-50.5h17.5V459.7z"/>
<path class="st10" d="M143.7,87.7c-4,8.5,0.2,19.3,2,26.5l4.5,3c24.8,12.1,22.8-9.5,22.8-27.5C166.2,74.9,147.7,77.2,143.7,87.7z"/>
<path class="st11" d="M203.5,497.7c14.4,0,27.5,7.3,28.5,10h-33C198.8,502.9,201.8,498.3,203.5,497.7z"/>
<path class="st12" d="M180.5,507.7H199 M199,507.7h33c-1-2.7-14.1-10-28.5-10C201.8,498.3,198.8,502.9,199,507.7z"/>
<path class="st11" d="M119.5,495.2c-14.4,0-28.5,9.3-29.5,12h33C123.2,502.4,121.2,495.8,119.5,495.2z"/>
<path class="st12" d="M143.5,507.2H123 M123,507.2H90c1-2.7,15.1-12,29.5-12C121.2,495.8,123.2,502.4,123,507.2z"/>
<path class="st1" d="M153,129.2l-5.5-25.5l-1.5,1.5v27l7,3.5V129.2z"/>
<path class="st13" d="M107.5,134.2l37-8c6,11,19,6.5,20,1l38.5,15c0.4,4.8,12.2,40.7,18.5,59c3.5-10.8,9.5-28.5,13.2-38.5l-1.7-2
	l2.5-8l2.5,2.5c0.4,2,13.8,18.2,20.5,26l2.5,3l-2.5,5.5l-2.6-2c-13.3,31.6-24.9,64.7-39.4,60c-17-5.5-23-32.5-28-51.5
	c3.9,15.8,2.7,38.4,2,51l0,0.5c-14,6-57.8,2.5-78,0v-50c-4.8,8.8-10.7,52.7-13.5,81l-1.5,13l-28,2L67,281.2h2.5
	C69.5,236.2,91.7,167.3,107.5,134.2z"/>
<path class="st14" d="M184,179.2l-2,70h9c2-4.4,0.2-35-1.5-50c3.6,15.6,10,35,17,41.5l5,4.5l-2.5-8c0,0-5-18.5-18-42.5
	C188.9,190.8,184,179.2,184,179.2z"/>
<path class="st14" d="M91,281.7l8-3.5c4-43,9.3-67.7,13.5-79.5v8.5v13.5v26.5l7.5,3l-3.5-81l-7,14.5C100,200.2,93.7,255.8,91,281.7z
	"/>
<path class="st11" d="M106.8,461.2c-5.4-34.9,1.9-154.3,6.7-214c5,0.7,17.9,1.9,22.5,2.4c2.2,0.2,3.4-0.2,5.5,0
	c14.9,1.2,20.4,1.1,30,0.5c1.4-0.1,4.7-0.4,6-0.5c7.5-0.7,10.9-1.5,14-2.4l7,98l3.3,116h3.2l-3,7h-39l-2.5-7h2.1l-9.1-163.5
	l-3.8,163.5h3.3l-3.5,7h-41l-3.5-7H106.8z"/>
<path class="st5" d="M196,420.2l-9-171.5l4-2c3.2,8.4,9.5,128,9.5,188.5L196,420.2z"/>
<path class="st5" d="M119.5,297.7l-5.5-50.5c-2,8.5-10.5,105-8,214.5l3,6.5h21L119.5,297.7z"/>
<path class="st7" d="M159.5,68.3c-5.5,0-10.6-1.7-17,4.5c-8.2,8-12.5,20.5-9.5,29c2.6,7.5-10.5,20.5-6,25.5c0,0,1,2.5,11,2.5
	c5.5,0,7.7,0.1,10.5-2.5c4.3-4,3.1-10.9,1.5-16.5c-1.2-4-4.1-6.8-4.5-11c-0.5-5.1,4.5-10.5,4.5-10.5l6-6.1l19.5,6.1
	C176.5,82.6,176,70.3,159.5,68.3z"/>
<path class="st5" d="M153.5,298.2l9.5,163h-2.5l2.5,7h10.5l1.5-7l-8.5-79l-6-41.5L153.5,298.2z"/>
<path class="st15" d="M382,127.3H231c-4.4,0-8,3.6-8,8v132c0,4.4,3.6,8,8,8h151c4.4,0,8-3.6,8-8v-132
	C390,130.9,386.4,127.3,382,127.3z"/>
<path class="st16" d="M369,246.3h-31c-5,0-9,4-9,9l0,0c0,5,4,9,9,9h31c5,0,9-4,9-9l0,0C378,250.3,374,246.3,369,246.3z"/>
<path class="st17" d="M315,246.3h-31c-5,0-9,4-9,9l0,0c0,5,4,9,9,9h31c5,0,9-4,9-9l0,0C324,250.3,320,246.3,315,246.3z"/>
<path class="st4" d="M243,144.3h132c1.7,0,3,1.3,3,3v21c0,1.7-1.3,3-3,3H243c-1.7,0-3-1.3-3-3v-21C240,145.6,241.3,144.3,243,144.3z
	"/>
<circle class="st18" cx="362.5" cy="157.8" r="5.5"/>
<path class="st18" d="M271.5,155.3h78c1.4,0,2.5,1.1,2.5,2.5l0,0c0,1.4-1.1,2.5-2.5,2.5h-78c-1.4,0-2.5-1.1-2.5-2.5l0,0
	C269,156.4,270.1,155.3,271.5,155.3z"/>
<path class="st4" d="M243,176.3h132c1.7,0,3,1.3,3,3v21c0,1.7-1.3,3-3,3H243c-1.7,0-3-1.3-3-3v-21C240,177.6,241.3,176.3,243,176.3z
	"/>
<circle class="st18" cx="362.5" cy="189.8" r="5.5"/>
<path class="st18" d="M271.5,187.3h78c1.4,0,2.5,1.1,2.5,2.5l0,0c0,1.4-1.1,2.5-2.5,2.5h-78c-1.4,0-2.5-1.1-2.5-2.5l0,0
	C269,188.4,270.1,187.3,271.5,187.3z"/>
<path class="st4" d="M243,208.3h132c1.7,0,3,1.3,3,3v21c0,1.7-1.3,3-3,3H243c-1.7,0-3-1.3-3-3v-21C240,209.6,241.3,208.3,243,208.3z
	"/>
<circle class="st18" cx="362.5" cy="221.8" r="5.5"/>
<path class="st18" d="M271.5,219.3h78c1.4,0,2.5,1.1,2.5,2.5l0,0c0,1.4-1.1,2.5-2.5,2.5h-78c-1.4,0-2.5-1.1-2.5-2.5l0,0
	C269,220.4,270.1,219.3,271.5,219.3z"/>
<path class="st19" d="M49.4,456.2c0-30.9,0-109.9,0-109.9s22,68,30.2,105.1c3.2,14.5-9.6,37.8-9.6,37.8S49.4,471.4,49.4,456.2z"/>
<path class="st4" d="M61.1,404l-4.8-35l19.2,66.6L61.1,404z"/>
<path class="st20" d="M49.4,405.3c1.6,9.9,16,56.5,23.4,78.3l-2.7,4.8c-12.4-8.9-18.5-21.3-20.6-30.2V405.3z"/>
<path class="st21" d="M72.8,507.7L50.1,348.3"/>
<path class="st19" d="M86.2,484.3c-4.1-10.5-7.4-51.8,12.3-133.2C111,390.1,126,471.5,86.2,484.3z"/>
<path class="st22" d="M92.7,386.8c4.1,24.7-2.5,64.7-9.6,73.5C81,441,87.2,399.8,92.7,386.8z"/>
<path class="st20" d="M85.8,487.1c6.9-22.4,16.5-54.3,24.7-76.9C114,433.3,112.6,478.8,85.8,487.1z"/>
<path class="st21" d="M74.2,508.4c9.4-13.5,27.9-52.3,26.8-99.6c-0.6-24-2.5-60.7-2.7-55.6"/>
<path class="st23" d="M34.3,473.3c6,18.1,24.3,25,39.8,34.3c0,0-11.4-27.4-24-40.5C35.2,451.7,2.7,439,2.7,439
	S28.3,455.2,34.3,473.3z"/>
<path class="st24" d="M74.2,507.7c-18.5-22.2-48.1-58.4-65.9-65.9"/>
<path class="st25" d="M28.8,488.4c17.8-1.6,44.6,19.2,44.6,19.2s-28.7-8.7-44.6-9.5C17.6,497.6,0,503.5,0,503.5
	S16.5,489.5,28.8,488.4z"/>
<path class="st26" d="M1.4,502.9c0,0,18.1-10.6,30.9-11c16.4-0.5,39.1,15.1,39.1,15.1"/>
<path class="st23" d="M113.3,473.3c-6,18.1-24.3,25-39.8,34.3c0,0,11.4-27.4,24-40.5c14.9-15.5,47.4-28.2,47.4-28.2
	S119.4,455.2,113.3,473.3z"/>
<path class="st24" d="M73.5,507.7c18.5-22.2,48.1-58.4,65.9-65.9"/>
<path class="st25" d="M118.8,488.4c-17.8-1.6-44.6,19.2-44.6,19.2s28.7-8.7,44.6-9.5c11.3-0.6,28.8,5.4,28.8,5.4
	S131.1,489.5,118.8,488.4z"/>
<path class="st26" d="M146.3,502.9c0,0-18.1-10.6-30.9-11C99,491.3,76.2,507,76.2,507"/>
<circle class="st27" cx="393" cy="30.3" r="28.1"/>
<path class="st28" d="M382,35.6l9.3,6.8l15-23.2"/>
<path class="st29" d="M239,293.3h106c6.6,0,12,5.4,12,12v50c0,6.6-5.4,12-12,12H239c-6.6,0-12-5.4-12-12v-50
	C227,298.6,232.4,293.3,239,293.3z"/>
<path class="st30" d="M248,307.3h33c3.3,0,6,2.7,6,6v32c0,3.3-2.7,6-6,6h-33c-3.3,0-6-2.7-6-6v-32C242,310,244.7,307.3,248,307.3z"
	/>
<rect x="254" y="319.3" class="st18" width="13" height="14"/>
<circle class="st31" cx="269.5" cy="333.8" r="7.5"/>
<path class="st32" d="M303,307.3h33c3.3,0,6,2.7,6,6v32c0,3.3-2.7,6-6,6h-33c-3.3,0-6-2.7-6-6v-32C297,310,299.7,307.3,303,307.3z"
	/>
<path class="st33" d="M312,319.3h7c1.7,0,3,1.3,3,3v8c0,1.7-1.3,3-3,3h-7c-1.7,0-3-1.3-3-3v-8C309,320.6,310.3,319.3,312,319.3z"/>
<circle class="st18" cx="324.5" cy="333.8" r="7.5"/>
<path class="st29" d="M595,240.7h106c6.6,0,12,5.4,12,12v50c0,6.6-5.4,12-12,12H595c-6.6,0-12-5.4-12-12v-50
	C583,246,588.4,240.7,595,240.7z"/>
<path class="st30" d="M604,254.7h33c3.3,0,6,2.7,6,6v32c0,3.3-2.7,6-6,6h-33c-3.3,0-6-2.7-6-6v-32C598,257.3,600.7,254.7,604,254.7z
	"/>
<rect x="610" y="266.7" class="st18" width="13" height="14"/>
<circle class="st31" cx="625.5" cy="281.2" r="7.5"/>
<path class="st32" d="M659,254.7h33c3.3,0,6,2.7,6,6v32c0,3.3-2.7,6-6,6h-33c-3.3,0-6-2.7-6-6v-32C653,257.3,655.7,254.7,659,254.7z
	"/>
<path class="st33" d="M668,266.7h7c1.7,0,3,1.3,3,3v8c0,1.7-1.3,3-3,3h-7c-1.7,0-3-1.3-3-3v-8C665,268,666.3,266.7,668,266.7z"/>
<circle class="st18" cx="680.5" cy="281.2" r="7.5"/>
<path class="st29" d="M417,89.7h50c6.6,0,12,5.4,12,12v50c0,6.6-5.4,12-12,12h-50c-6.6,0-12-5.4-12-12v-50
	C405,95,410.4,89.7,417,89.7z"/>
<path class="st18" d="M426,103.7h33c3.3,0,6,2.7,6,6v32c0,3.3-2.7,6-6,6h-33c-3.3,0-6-2.7-6-6v-32C420,106.3,422.7,103.7,426,103.7z
	"/>
<path class="st34" d="M456,124.7c0,7.2-5.8,13-13,13s-13-5.8-13-13c0-7.2,5.8-13,13-13S456,117.5,456,124.7z M433.1,124.7
	c0,5.5,4.4,9.9,9.9,9.9s9.9-4.4,9.9-9.9c0-5.5-4.4-9.9-9.9-9.9S433.1,119.2,433.1,124.7z"/>
<path class="st35" d="M453.7,132c-1.2,1.8-2.9,3.3-4.9,4.3c-2,1-4.2,1.5-6.4,1.4c-2.2-0.1-4.3-0.7-6.2-1.9c-1.9-1.2-3.4-2.8-4.5-4.7
	c-1.1-1.9-1.7-4.1-1.7-6.3c0-2.2,0.5-4.4,1.6-6.3c1.1-1.9,2.6-3.6,4.4-4.8c1.9-1.2,4-1.9,6.2-2l0.2,2.9c-1.7,0.1-3.4,0.6-4.8,1.6
	c-1.4,0.9-2.6,2.2-3.4,3.7c-0.8,1.5-1.2,3.2-1.2,4.9c0,1.7,0.5,3.4,1.3,4.9c0.8,1.5,2,2.7,3.5,3.6c1.5,0.9,3.1,1.4,4.8,1.5
	c1.7,0.1,3.4-0.3,4.9-1.1c1.5-0.8,2.8-1.9,3.8-3.3L453.7,132z"/>
<path class="st29" d="M36,42.3h50c6.6,0,12,5.4,12,12v50c0,6.6-5.4,12-12,12H36c-6.6,0-12-5.4-12-12v-50C24,47.6,29.4,42.3,36,42.3z
	"/>
<path class="st10" d="M45,56.3h33c3.3,0,6,2.7,6,6v32c0,3.3-2.7,6-6,6H45c-3.3,0-6-2.7-6-6v-32C39,59,41.7,56.3,45,56.3z"/>
<path class="st36" d="M69.7,78.6c-1.3,2.9-6.1,6.6-7.1,6.6c-1,0-5.8-3.8-7.1-6.6c-1.8-3.8,1.8-8.9,7.1-4.9
	C67.9,69.7,71.5,74.8,69.7,78.6z"/>
<path class="st37" d="M548.8,179.7v97.5l-9.5-5c-2-4.4,2.3-57.5,4-72.5c-3.6,15.6-10,35-17,41.5l-5,4.5l2.5-8c0,0,5-18.5,18-42.5
	C543.9,191.2,548.8,179.7,548.8,179.7z"/>
<path class="st37" d="M641.8,282.2l-8-3.5c-4-43-9.3-67.7-13.5-79.5v8.5v13.5v55l-7.5,2.5l3.5-109l7,14.5
	C632.8,200.7,639.1,256.3,641.8,282.2z"/>
<g>
	<polygon class="st18" points="585.6,178.2 572.2,164.8 559.4,177.5 559.4,173.5 572.2,160.7 585.6,174.1 599.5,160.2 599.4,164.4 	
		"/>
</g>
</svg>
