<?xml version="1.0" encoding="UTF-8" standalone="no"?>
<!DOCTYPE svg PUBLIC "-//W3C//DTD SVG 1.1//EN" "http://www.w3.org/Graphics/SVG/1.1/DTD/svg11.dtd">
<svg width="100%" height="100%" viewBox="0 0 358 186" version="1.1" xmlns="http://www.w3.org/2000/svg" xmlns:xlink="http://www.w3.org/1999/xlink" xml:space="preserve" xmlns:serif="http://www.serif.com/" style="fill-rule:evenodd;clip-rule:evenodd;stroke-linejoin:round;stroke-miterlimit:2;">
    <g transform="matrix(1,0,0,1,-132.396,-113.167)">
        <g>
            <g transform="matrix(2.67788,0,0,2.67788,253.591,113.167)">
                <path d="M0,31.16L-23.185,7.975L-45.25,30.041L-45.258,22.979L-23.185,0.904L0,24.089L24.089,0L23.935,7.225L0,31.16Z" style="fill:rgb(255,145,0);fill-rule:nonzero;"/>
            </g>
            <g transform="matrix(0.642691,0,0,0.642691,-279.876,73.6166)">
                <path d="M1107.96,329.71C1106.08,338.656 1094.12,350.522 1082.03,350.522C1055.29,350.522 1045.37,332.085 1045.37,308.181L1045.37,212.96C1045.37,211.135 1046.78,209.718 1048.61,209.718C1050.43,209.718 1051.85,211.135 1051.85,212.96L1051.85,308.181C1051.85,329.252 1060.36,344.847 1082.03,344.847C1088.31,344.847 1101.56,334.735 1102.7,325.422C1102.84,324.314 1104.09,323.293 1105.43,323.339C1107.05,323.397 1108.34,324.681 1108.34,326.302C1108.34,327.518 1108.05,328.818 1107.96,329.71ZM1158.97,252.872C1192.61,252.872 1197.06,277.992 1197.06,291.563C1197.06,293.797 1197.06,296.63 1196.65,299.063C1196.25,301.288 1194.83,302.305 1192.2,302.305L1123.92,302.305C1123.92,331.48 1137.5,345.051 1161.2,345.051C1176.4,345.051 1183.89,339.784 1189.77,334.922C1190.37,334.517 1190.78,334.313 1191.39,334.313C1192.81,334.313 1194.02,335.53 1194.02,336.947C1194.02,337.959 1193.42,338.567 1192.81,339.176C1189.57,342.217 1179.84,350.322 1161.2,350.322C1134.26,350.322 1117.64,335.734 1117.64,301.492C1117.64,270.092 1133.04,252.872 1158.97,252.872ZM949.652,206.477C949.652,204.857 951.069,203.44 952.694,203.44C954.311,203.44 955.731,204.857 955.731,206.477L955.731,272.119C955.731,272.119 964.644,252.869 988.752,252.869C1014.69,252.869 1030.29,268.269 1030.29,301.494C1030.29,334.719 1014.69,350.319 988.752,350.319C974.353,350.319 962.481,345.096 955.731,334.544L955.731,346.269C955.731,347.889 954.311,349.306 952.694,349.306C951.069,349.306 949.652,347.889 949.652,346.269L949.652,206.477ZM650.006,346.269L650.006,257.127C650.006,255.507 651.423,254.086 653.044,254.086C654.665,254.086 656.081,255.507 656.081,257.127L656.081,272.319C659.123,264.219 668.844,252.869 687.89,252.869C717.065,252.869 724.152,270.094 724.152,288.732L724.152,346.269C724.152,347.89 722.74,349.307 721.115,349.307C719.498,349.307 718.077,347.89 718.077,346.269L718.077,288.732C718.077,272.319 712.406,258.14 687.686,258.14C665.606,258.14 656.081,274.957 656.081,290.757L656.081,346.269C656.081,347.89 654.665,349.307 653.044,349.307C651.423,349.307 650.006,347.89 650.006,346.269ZM757.587,257.127L757.587,346.269C757.587,347.889 756.17,349.306 754.549,349.306C752.924,349.306 751.508,347.889 751.508,346.269L751.508,257.127C751.508,255.506 752.924,254.089 754.549,254.089C756.17,254.089 757.587,255.506 757.587,257.127ZM923.305,288.731L923.305,346.269C923.305,347.889 921.889,349.306 920.268,349.306C918.647,349.306 917.23,347.889 917.23,346.269L917.23,288.731C917.23,272.323 910.747,257.935 887.243,257.935C865.972,257.935 857.668,272.323 857.668,288.931L857.668,346.269C857.668,347.889 856.247,349.306 854.63,349.306C853.005,349.306 851.589,347.889 851.589,346.269L851.589,288.731C851.589,272.323 846.118,257.935 822.214,257.935C800.939,257.935 792.026,275.764 792.026,293.185L792.026,346.269C792.026,347.889 790.609,349.306 788.989,349.306C787.368,349.306 785.947,347.889 785.947,346.269L785.947,257.127C785.947,255.506 787.368,254.089 788.989,254.089C790.609,254.089 792.026,255.506 792.026,257.127L792.026,272.523C794.864,263.61 804.384,252.873 822.822,252.873C841.864,252.873 851.789,260.977 855.439,271.714C858.272,263.202 868.201,252.873 887.243,252.873C916.418,252.873 923.305,270.094 923.305,288.731ZM955.731,311.015C955.731,334.719 969.706,345.048 988.752,345.048C1011.64,345.048 1023.8,331.882 1023.8,301.494C1023.8,271.511 1011.64,258.14 988.752,258.14C964.444,258.14 955.731,281.844 955.731,281.844L955.731,311.015ZM1158.97,258.138C1136.08,258.138 1124.74,273.13 1123.92,297.238L1190.99,297.238C1190.99,297.238 1191.19,293.188 1191.19,291.563C1191.19,275.359 1184.91,258.138 1158.97,258.138ZM750.904,223.494C750.904,220.456 752.116,219.239 754.549,219.239C756.979,219.239 758.195,220.456 758.195,223.494C758.195,226.535 756.979,227.752 754.549,227.752C752.116,227.752 750.904,226.535 750.904,223.494Z" style="fill:white;"/>
            </g>
        </g>
    </g>
</svg>
