<?xml version="1.0" encoding="utf-8"?>
<!-- Generator: Adobe Illustrator 23.0.1, SVG Export Plug-In . SVG Version: 6.00 Build 0)  -->
<svg version="1.1" id="Layer_1" xmlns="http://www.w3.org/2000/svg" xmlns:xlink="http://www.w3.org/1999/xlink" x="0px" y="0px"
	 viewBox="0 0 730.8 683.3" style="enable-background:new 0 0 730.8 683.3;" xml:space="preserve">
<style type="text/css">
	.st0{fill:#A9E5E0;}
	.st1{fill:#CCCCCC;}
	.st2{fill:#669999;}
	.st3{fill:#C2FDF8;}
	.st4{fill:#FFFFFF;}
	.st5{fill:#F0EFEC;}
	.st6{fill:#FFCB56;}
	.st7{fill:#FFFFFF;stroke:#669999;stroke-width:3;}
	.st8{fill:#8A6564;}
	.st9{fill:#FADB96;}
	.st10{fill:#485F61;}
	.st11{fill:#CDD6E6;}
	.st12{fill:#FD9027;}
	.st13{fill:#2B2B2B;}
	.st14{fill-rule:evenodd;clip-rule:evenodd;fill:#CCCCCC;}
	.st15{fill:#F9F5F4;}
	.st16{fill:#BDFEF9;}
	.st17{fill:#DAE4FA;}
	.st18{fill:#E8C7C7;}
	.st19{fill-rule:evenodd;clip-rule:evenodd;fill:#FD9027;}
	.st20{fill:#C1B4B3;}
	.st21{fill:#C4C4C4;}
	.st22{fill:#DCD6D6;fill-opacity:0.4;}
	.st23{fill:#7298A3;}
	.st24{fill-rule:evenodd;clip-rule:evenodd;fill:#EDC7C5;}
	.st25{fill:#FF9100;}
	.st26{fill:#FFFEFD;}
</style>
<g>
	<path class="st0" d="M398.1,332.3l319.2,195.9l13.5-15.8V214.1L413.9,21.5l-15.7,3.4V332.3z"/>
	<path class="st1" d="M717.3,528.3V218.6L398.1,24.9v307.4L717.3,528.3z"/>
	<path class="st2" d="M539.8,330.6c-1.9-8.8-2.9-17.9-2.9-27c0-10.9,0.5-20.8,1.5-29.5l71.7,45L539.8,330.6z"/>
	<path class="st0" d="M548.2,356.3l62-37.2l-70.3,11.6C541.8,339.5,544.6,348.1,548.2,356.3z"/>
	<path class="st3" d="M596,218.9c4.8,0,9.5,0.7,14.1,1.9v98.3l-71.7-45C543,236.8,558.6,218.9,596,218.9z"/>
	<path class="st4" d="M686,338.3c0,57.5-15.6,79.6-61.7,79.6c-31.5,0-60.8-26.5-76.1-61.6l62-37.2v-98.3
		C650.7,231.6,686,286.8,686,338.3z"/>
	<path class="st5" d="M493.1,356.1l7.9,3.4v-72.1V164.6l-7.9-3.4V284V356.1z"/>
	<path class="st5" d="M472.8,338.1l7.9,3.4v-36v-73.2l-7.9-3.4V302V338.1z"/>
	<path class="st5" d="M432.3,302l7.9,3.4v-72.1v-62l-7.9-3.4v62V302z"/>
	<path class="st5" d="M452.6,320l7.9,3.4v-93.5v-65.3l-7.9-3.4v65.3V320z"/>
	<path class="st3" d="M493.1,356.1l7.9,3.4v-72.1l-7.9-3.4V356.1z"/>
	<path class="st3" d="M472.8,338.1l7.9,3.4v-36l-7.9-3.4V338.1z"/>
	<path class="st3" d="M432.3,302l7.9,3.4v-72.1l-7.9-3.4V302z"/>
	<path class="st3" d="M452.6,320l7.9,3.4v-93.5l-7.9-3.4V320z"/>
	<path class="st3" d="M445.5,163.7V96.5L285.2,0v65L445.5,163.7z"/>
	<path class="st4" d="M397.3,98.2v-9.6l-102.6-62V34L397.3,98.2z"/>
	<path class="st4" d="M395.6,115.5v-5.9L291.3,47.4v3.7L395.6,115.5z"/>
	<ellipse class="st6" cx="418" cy="117.6" rx="16.4" ry="17.7"/>
	<path class="st7" d="M566.2,142.2v-42.1l-32.7-18.2v41L566.2,142.2z"/>
	<path class="st6" d="M544.5,125l12.2-9.9l-3.4-7.3l-8.7,7.3l-37.3-68.5l-6.5,4.1L544.5,125z"/>
	<path class="st6" d="M587,500.7c-7.3-3.7-22.8-13.5-26-23.6C567.9,481.3,582.6,491.9,587,500.7z"/>
	<path class="st6" d="M591,498.4c-12.6-13.4-37.9-41.4-38.6-46.4C560.3,453.2,579,464.3,591,498.4c-2.9-13.4-11-43.1-20.5-55.1
		c5.5,2.1,17.3,8.3,20.5,16.5C594.1,468,592.3,488.9,591,498.4z"/>
	<path class="st8" d="M606.7,501.5c-0.5,7.6-3.1,23.3-9.4,25.2c-7.9,2.4-12.6-1.6-12.6-4.7c0-2.5-1.6-14.7-2.4-20.5
		c-0.8-0.8-2-2.8-0.8-4.7c7.6,0.5,23.3,1.3,25.2,0C609.1,495.2,608.3,501.1,606.7,501.5z"/>
	<path class="st9" d="M594.9,499.9c-8.1-13.9-24.4-43.6-24.4-51.2C580.2,454.8,598.7,473.5,594.9,499.9z"/>
	<path class="st9" d="M631.9,484.2c-25.2,0.6-31.5,10.8-31.5,15.7c-0.5-3.1-0.6-6-0.2-8.7c-5.2-12.6-12.8-40.3-2.1-50.4
		c0.7-0.7,1.4-1.3,2.1-1.8c-2.3-10.2-2-32,17.6-38.3c-5,5.2-14.5,17.3-12.6,23.6c2.4-4.7,8.8-13.4,15.7-10.2
		c-4.2,2.1-12.6,7.7-12.6,13.4c3.4-3.4,12.9-9,23.6-3.9c-8.1,1-24.2,4.7-23.6,11c11.2-4.1,22.4-0.8,23.6,1.6
		c-9.3-0.3-28.8,1.6-31.7,11c9.3-4.5,30.8-11,42.8-1.6c-15,0.3-44.9,3.9-44.9,16.5c14.7-6,49.4-15.6,70.9-5.5
		c-23-1-68.9,4.4-68.7,34.6c2.2-17.4,20.8-24.8,31.7-22c10.1,2.5,28.9,3.1,37,3.1C667.1,476.1,657.1,483.6,631.9,484.2z"/>
</g>
<g>
	<path class="st10" d="M423.9,273.3c0,2.5,3.6,1,5.4,0c1.8-2.1,5.6-7.1,6.2-10.9c0.8-4.7-3.1-3.9-1.6-6.2c1.6-2.3,6.3-5.9,5.5-14.4
		s-4-6.2-6.3-6.2c-2.3,0,0,3.9-5.4,3.9c-5.4,0-3.9,3.9-3.9,7.8s-3.8-3.1-6.9,0c-3.1,3.1-7.6,5.3-3.5,8.9c3.5,3.1,3,4.1,6.5,9.3
		C422.6,269.5,423.9,270.2,423.9,273.3z"/>
	<path class="st8" d="M509.4,237.6c-3.7,8.1-26.4,24.1-37.3,31.1c-4.4,8.7,1.8,11.9,5.4,12.4c28.8-13.2,34.2-38.9,38.1-39.6
		c3.9-0.8,7-7,7-10.9c0-3.9,3.1-6.2,4.7-12.4c1.6-6.2-4.7-6.2-4.7-3.9C522.6,216.6,514,227.5,509.4,237.6z"/>
	<path class="st8" d="M396.7,327.7c-1.2-3.1,4.1-11.1,7-14.8c7.5,0,14,9.8,16.3,14.8c-0.3,3.1-1.6,9.3-4.7,9.3
		C411.5,337.1,398.2,331.6,396.7,327.7z"/>
	<path class="st8" d="M444.1,267.1c0,3.1-3.6,8.5-5.4,10.9c-0.8,1-10.9,0-10.9-2.3c0-2.3,7.8-12.4,5.4-14.8c-2.3-2.3-3.9-4.7-3.1-7
		c0.6-1.9,2.3-1.8,3.1-1.6c0-6.2,1.6-7.3,2.3-7C441,246.9,444.1,263.2,444.1,267.1z"/>
	<path class="st10" d="M461.2,519.6c-3.1-3.7-0.8-10.9,0.8-14c5.4,6.2,5.4,0,10.9,0c5.4,0,17.1,4.7,17.1,7
		C489.9,514.9,465.1,524.3,461.2,519.6z"/>
	<path class="st10" d="M417.7,505.6c-3.7-3.1-1.6-8.5,0-10.9c4.7,6.2,4.7,2.3,12.4-1.6c6.2-3.1,8.8-1.3,9.3,0
		C438.7,498.6,422.3,509.5,417.7,505.6z"/>
	<path class="st11" d="M406.8,372.8c-3.1-8.1,0.3-19.9,2.3-24.9c0.9-2.5,27.8,2.1,41.2,4.7c10.1,6.2,37.3,73.1,40.4,76.2
		c2.5,2.5-8.3,52.3-14,76.9c-5.6,1.9-13.7-1.8-17.1-3.9c-1.2-6.2,5.2-47.1,8.5-66.8c-6.8-6.8-19.4-26.2-24.9-35
		c6.2,10.1,5.4,29.5,5.4,38.9c0,7.5-10.9,39.9-16.3,55.2c-6.2,3.1-13.5,0.3-16.3-1.6c0-5.4,10.9-49,11.7-61.4
		C428.5,418.7,410.7,382.9,406.8,372.8z"/>
	<path class="st12" d="M405.2,302.9c0-13.1,15.5-23.6,23.3-27.2c8-4.7,14,6.2,22.5,0c6.8-5,18.4-9.8,23.3-11.7l4.7,22.5L466.6,299
		c0,11.7-7,42.7-15.5,52.1c-6.8,7.5-30.8,1-42-3.1c4.5-15.6,3.8-22.9,1.8-28l-12.7-6.2L405.2,302.9z"/>
</g>
<g>
	<path class="st13" d="M268.3,136.4c-15.4-2-19.8,12.4-20.1,19.9c-18.7,6.3-13.4,23.1-8.4,30.7c-5.7,3.4-14.8,13.6-5.6,27.7
		c11.6,17.6,48.3,7.2,56.2-14.6c6.3-17.5-1-29.1-5.4-32.7C285.8,157.9,283.7,138.4,268.3,136.4z"/>
	<path class="st14" d="M192.5,207.1c0,1.8,0,3.2,0,3.7c3.5-3.5,33.1-15.2,51-13c0,0,8.2,16.3,7,21.5c-5.9,26.5-6.4,44.8-6.4,44.8
		c14.9,0,45.9-6.3,52.4-10.3c0-13,0-18.5-12.5-39c-3.3-10.8-3.1-17.1-2.2-18c4.7-5.1,48.2,4.9,53.2,7.5l-1-23.3
		c-13.2,0.9-46.2,0.5-50-1.7c-4.7-2.8-34-3.5-41.5,0c-3.2,1.5-20.8,2.6-34.6,3.4c-6.7,0.4-12.5,0.8-15.4,1.1
		C192.3,187,192.4,200.3,192.5,207.1z M185,430.3v-80.5l68.5-42l71,42v10.6l1-0.6l71,42v73.5l-14,8.4l12,7.1L164,632.8l-129-77
		l10.9-6.4c2-28.8,8.3-77.9,20.6-83.1c9-3.8,39.4,13.7,66.8,31.9l37.7-22.1v-24.4l25.4-15.6L185,430.3z M53.4,545
		c1.5-29.9,7.2-73.9,21.1-69.2c9.1,3,29.1,15.5,48.5,28.5L53.4,545z M35,573.3v-17l129,77l230.5-142v19.5L377,521.3
		c3.6,2.9,6,7.4,6,12.5c0,0.1,0,0.2,0,0.2c0,0.1,0,0.2,0,0.3c0,7.6-7.3,18.4-15.8,19.4c-0.4,0-0.8,0.1-1.2,0.1c-8.8,0-16-7.2-16-16
		c0-0.1,0-0.1,0-0.2l-118.9,71.7c3.6,2.9,5.9,7.4,5.9,12.4c0,0,0,0.1,0,0.1c0,0,0,0.1,0,0.1c0,0.1,0,0.2,0,0.3
		c0,7.6-7.3,18.4-15.8,19.4c-0.4,0-0.8,0.1-1.2,0.1c-8.8,0-16-7.2-16-16c0,0,0-0.1,0-0.1l-40,24.1L35,573.3z"/>
	<path class="st15" d="M35,555.8l129,77l230.5-142l-123-73.5L35,555.8z"/>
	<g>
		<g>
			<path class="st16" d="M257,482.3v-80.5l68.5-42l71,42v73.5l-71,42.5L257,482.3z"/>
			<path class="st17" d="M257,401.8l68.5,39l71-39l-71-42L257,401.8z"/>
			<path class="st2" d="M325.5,440.8v77l71-42.5v-73.5L325.5,440.8z"/>
			<path class="st16" d="M171,532.3v-80.5l68.5-42l71,42v73.5l-71,42.5L171,532.3z"/>
			<path class="st17" d="M171,451.8l68.5,39l71-39l-71-42L171,451.8z"/>
			<path class="st2" d="M239.5,490.8v77l71-42.5v-73.5L239.5,490.8z"/>
			<path class="st16" d="M185,430.3v-80.5l68.5-42l71,42v73.5l-71,42.5L185,430.3z"/>
			<path class="st2" d="M253.5,388.8v77l71-42.5v-73.5L253.5,388.8z"/>
		</g>
		<path class="st17" d="M185,349.8l68.5,39l71-39l-71-42L185,349.8z"/>
	</g>
	<g>
		<path class="st10" d="M153.5,548.8c0.8-2.7,0.3-6.2,0-7.6c-1-0.8-12.4-1.7-12.4,0.8s-2.9,18.6,0,19.4c2.9,0.8,7.6,0.8,7.6,0
			c0-0.8,3.8-0.8,7.6-1.7c3.8-0.8,16.2-3.8,17.1-6.3c1-2.5-1-5.9-3.8-5.9C167.3,547.5,157.9,547.3,153.5,548.8z"/>
		<path class="st10" d="M194.4,553c0.3,1.4,0.8,4.9,0,7.6c4.4-1.4,13.9-1.2,16.2-1.2c2.9,0,4.8,3.4,3.8,5.9
			c-1,2.5-13.3,5.4-17.1,6.3c-3.8,0.8-7.6,0.8-7.6,1.7s-4.8,0.8-7.6,0s0-16.9,0-19.4C182,551.4,193.4,552.2,194.4,553z"/>
		<path class="st14" d="M196.3,426.4c-13.3-2.5-41.1-7.4-45.6-6.8c-4.4,35.5-12.7,113.9-10.5,124c4.1,0.6,12.9,1.4,15.2,0
			c1.2-6.2,2.8-14.6,4.6-23.6c4.8-24.6,10.6-54.1,10.6-58.2c0-3.2,2-3.4,2,0c0,3.4,5.6,87.8,7.5,93.7c4.4,0.6,13.9,1.4,16.2,0
			C197.5,516.7,199.3,436.5,196.3,426.4z"/>
		<path class="st18" d="M194.4,314.1c0-2-3.5-8.5-5.8-10.5c-16.2-2.5-15.2,13.8-15.2,22.3c0,8.4-2.3,10.7-3.8,14.4
			c-1,2.6,9.8,4.7,15.5,5.9c-1.3-5.6-0.4-15.8,2.6-15.2c3.8,0.8,6.7-0.8,8.6-5.1C198.2,321.7,194.4,316.7,194.4,314.1z"/>
		<path class="st18" d="M226.4,390.4c0-5.4-7.3-16.2-12-21.3c-5.7,0-16.2,5.3-16.2,7c0,1.7,14,14.3,14,18.5c0,4.2-13,23.3-17.7,26.7
			c-4.8,3.4,0,16.9,1.9,22.8c1.9,5.9,4.8-2.5,4.8-13.5c0-11,10.2-14.9,13.3-19C218.6,406.2,226.4,397.2,226.4,390.4z"/>
		<path class="st18" d="M151.1,381.7c-3.8-1.4-2.1-8.5-0.5-11c0-1.7-12.6-8.6-14.5-3.5s0.3,18.7,2.2,22.1c1.9,3.4,15.6,2.9,21.3,2.9
			s-1.4-8.8-1.4-11.3C158.2,378.3,155.8,383.4,151.1,381.7z"/>
		<path class="st19" d="M200.6,344.2c-6.3-3.9-26.8-8.1-32.9-8.1c-7.6,0-14.3,1.1-19,3.1c-7.1,3-14.6,18.9-14.6,28.1
			c3.2,2.8,8.7,6.8,15.6,6.8c-0.6,12.9-1.7,40-1,44.7c1,5.9,39.9,7.4,45.6,7.4c5.7,0,5.4-18.7,5.3-24.7c0-0.6,0-1,0-1.3
			c0-1.2,0-2.4,0-3.7c-0.1-5.5-0.2-11.7,1-13.8c0.3-0.5,1,0.5,2,2c1.4,2.1,3.4,5,5.5,5c0.2-0.1,0.5-0.2,0.8-0.3
			c4.6-1.5,11.9-3.9,14-10.3c-1.4-3.8-3.6-8-5.9-12.4c-1.5-2.8-3-5.7-4.4-8.5C210.4,353.5,204.1,346.1,200.6,344.2z"/>
		<path class="st10" d="M192.6,308.2c0.8-2.7-1-5.6-2-7c-2.9-4.2-15.3-4.8-20-3.9c-4.8,0.8-5.2,5.2-9,9.4s0.2,13.3,3,17
			c3,4,10,3.5,13.6,5.7c1.2,0.7,6.7-6.8,3.8-7.6s-1.9-11.6,0.6-7.6c1.3,2.1,3.2,0.5,4.5-2C189,308.6,191.6,311.6,192.6,308.2z"/>
		<path class="st18" d="M214.3,411.7c4.3-5.5,12-14.5,12-21.2l-14.3,4.2c0,4.2-13,23.3-17.7,26.7c-4.8,3.4,0,16.9,1.9,22.8
			c1.9,5.9,4.8-2.5,4.8-13.5S211.2,415.7,214.3,411.7z"/>
	</g>
	<path class="st20" d="M35,573.3v-17l129,77l230.5-142v19.5L164,649.8L35,573.3z"/>
	<path class="st21" d="M167.5,522.3v104.5c0,0-0.6,2.3-4,2.5s-4.5-2.5-4.5-2.5v-97.5c-21.7-15.7-68.9-48.3-84.5-53.5
		c-15.6-5.2-20.8,50.8-21.5,79.5c0,0-0.6,1.8-3.5,2c-2.9,0.2-4-2-4-2c1.5-27.3,7.8-83.4,21-89C79.7,460.7,139.3,501.3,167.5,522.3z"
		/>
	<path class="st21" d="M237,621.8c0,8.8-8.2,20-17,20s-16-7.2-16-16c0-8.8,8.2-20,17-20S237,613,237,621.8z"/>
	<path class="st22" d="M237,622.3c0,8-8,19.5-17,19.5c-4,0-10.5-6.2-10.5-15c0-8.8,8.2-18,17-18C234.5,608.8,237,617.3,237,622.3z"
		/>
	<path class="st21" d="M383,533.8c0,8.8-8.2,20-17,20s-16-7.2-16-16c0-8.8,8.2-20,17-20S383,525,383,533.8z"/>
	<path class="st22" d="M383,534.3c0,8-8,19.5-17,19.5c-4,0-10.5-6.2-10.5-15c0-8.8,8.2-18,17-18C380.5,520.8,383,529.3,383,534.3z"
		/>
	<path class="st2" d="M9.9,683.3c-5.5,0-3.9-9.9-2.4-14.9c11.1-3.5,36.7,0,36.7,3.5S16.9,683.3,9.9,683.3z"/>
	<path class="st2" d="M85.5,674.8c-9.2,2.8-7.6-11-6.9-15c12.1-3.8,38.9-3,38.9,2.5S96.9,671.3,85.5,674.8z"/>
	<path class="st23" d="M52,612.8c-8.3,19.8-15,53-15,53s-11.5,3.3-19,3.5c-7.1,0.2-18-2-18-2s24.5-47.5,30.5-61S52.7,539,52.7,539
		c11.6-3.1,36.3,6.9,47.8,14.7c13,25,15.3,44,15,49.5c-1,17.9-9.6,48.7-7.9,51.7c0,0-10,3.6-16.6,4.8c-6.5,1.2-16.9,1.6-16.9,1.6
		c6.8-15.7,20.5-50.6,20.5-64.5c0-5.2-13.1-12.7-23.6-18.7C67.5,578.8,57.9,598.7,52,612.8z"/>
	<path class="st8" d="M108.6,427.9c3.9-2.2,9.5,3.7,9.5,9.1c0,6.7,2.7,7.1,2.7,9.4c0,0.9-2.1-0.3-2.7,0.9c-0.7,1.5,0,6.5-3.2,6.5
		c-9,0-4.8,11.8-5.5,13.1c-0.7,1.4-12.1-1-11.1-2.4c0.8-1.1,1.2-17.3,1.3-25.3C98.8,435,100.3,430.6,108.6,427.9z"/>
	<path class="st8" d="M158.5,516.3c0,0-0.5,0-2,3c-2.6,5.2-7.5,3.5-7.5,3.5v6c0,0,7.5-0.1,9.5,0c1.8,0.1,2.8,0,4.5-0.5
		c1.7-0.5,1.5-0.5,3-2.5s1.7-4.2,1-6.5c-0.8-2.8-2.3-3.3-4.5-4C160.8,514.8,158.5,516.3,158.5,516.3z"/>
	<path class="st2" d="M283.1,280.5c2.5-1.3,8.5-3.4,12.3-1.9C300.2,280.5,293.5,320.2,283.1,280.5z"/>
	<path class="st2" d="M284.5,355.8c2.8-0.9-3.3-16.3-4.5-18c-1.7-2.4-2.5-6.5-2.5-9.5c-1.8,0.3-13,2-16,2c0.5,4,3,11.5,5.5,16
		c3.1,5.6,4.5,6.3,7,8C278,357,280,357.3,284.5,355.8z"/>
	<path class="st19" d="M291.2,279.4c2.2-0.4,4.5-0.7,6.3-1.1c1-11.9-0.2-36.7-5-47c-4.8-10.3-20.6-16.8-20.6,4.7
		c0,15.4,5.7,33,8.7,42.4l0,0l0,0c0.4,1.1,0.7,2.1,0.9,2.9C283.4,280.6,287.3,280,291.2,279.4z M249.5,260.8
		c1,20.3,3.6,61.6,12.8,77.3h20c-5.7-22.5-9.9-52.8-10.7-67.3c0-1.8,0.2-5.3,0.3-9.3v0v0c0.2-5,0.5-10.6,0.5-14.2
		C268.3,251.8,254.6,258.6,249.5,260.8z M74.2,485.7c-4.1,15.6-9.2,34.9-22.2,53.1c2.1,7.9,14.8,19.4,50,17.5
		c2-9.5,3.2-21.9,4.1-31.9c0.8-8.9,1.5-16,2.4-17.2c1.6-2.2,2.9,1.8,4.6,6.9c2,6,4.4,13.6,8.5,14.2c17.3,2.8,34.5,5,36.5,2
		c2.4-3.6-0.4-8.8-2-11c-8.8,1.8-26.6-2.5-27-3c-4-4.8-4.4-16.9-4.9-27.9c-0.4-9.8-0.7-18.8-3.5-20.7c-4.7-3.3-10.1-4.2-12.1-4.2
		l-24.3-3.8C79.6,465.1,77.2,474.4,74.2,485.7z"/>
	<g>
		<polygon class="st4" points="95.2,498.1 85.3,488.2 75.9,497.6 75.9,494.6 85.3,485.2 95.2,495.1 105.5,484.8 105.4,487.9 		"/>
	</g>
	<path class="st6" d="M82.1,442.3c1.9-11.9,8.8-24,15.3-22.5c38.1,9,10.6,16.5,9.4,29.1c-0.7,6.7-4.5,44-17,58.9
		c-10,11.9-27-9.4-34.3-21.5C63.5,476.6,80.2,454.3,82.1,442.3z"/>
	<path class="st24" d="M271.3,143c2.9,3.4,9.8,13.3,8.2,21.2c-1.5,7.5-5.5,7.5-8.2,7.5c-1.3,3.4-1.1,4.1-0.8,5.9c0,0,0,0.1,0,0.1
		c0.9,4.8-10.5,3.5-11.5,1.5c-0.4-0.7-0.5-1-0.5-1.3c0-0.6,0.8-1.1,2.4-4.7c2-4.4,0.9-8.5,0-10.1C265.4,159.1,273.7,149.4,271.3,143
		z M327,189.4c-0.9-2.8-1.3-8.5,4.7-8.5c3.1,0,5.7-0.3,7.7-0.6c2.9-0.3,4.5-0.5,4.5,0.6C344,182.9,333.6,189.4,327,189.4z
		 M182.8,184.5L182.8,184.5c-2.1,0.1-4.1,0.2-5.6,0.2c-5.7,0,9.4,6.4,16.1,6.4c2.3,0,2.2-4.4,1.9-6.6
		C192.4,183.9,187.3,184.2,182.8,184.5z"/>
</g>
<g>
	<polygon class="st25" points="270.4,200.9 260.5,191.1 251.1,200.5 251.1,197.4 260.5,188 270.4,197.9 280.6,187.7 280.6,190.7 	
		"/>
</g>
<g>
	<polygon class="st4" points="177.4,368.2 168.7,357.3 158.3,365.5 158.6,362.5 169.1,354.3 177.7,365.3 189.1,356.3 188.7,359.3 	
		"/>
</g>
<g>
	<polygon class="st26" points="436.3,305 427.2,294.5 417.1,303.2 417.3,300.2 427.4,291.5 436.5,302 447.5,292.5 447.2,295.6 	"/>
</g>
</svg>
