<?xml version="1.0" encoding="utf-8"?>
<!-- Generator: Adobe Illustrator 23.0.1, SVG Export Plug-In . SVG Version: 6.00 Build 0)  -->
<svg version="1.1" id="Layer_1" xmlns="http://www.w3.org/2000/svg" xmlns:xlink="http://www.w3.org/1999/xlink" x="0px" y="0px"
	 viewBox="0 0 471 522.8" style="enable-background:new 0 0 471 522.8;" xml:space="preserve">
<style type="text/css">
	.st0{fill:#FF7CA4;}
	.st1{fill:#E6E7F3;}
	.st2{fill:none;stroke:#000000;stroke-width:0.3643;stroke-opacity:0.19;}
	.st3{fill:#7C95EE;}
	.st4{fill:#4C4AA7;}
	.st5{fill-rule:evenodd;clip-rule:evenodd;fill:#F4AFAA;}
	.st6{fill-rule:evenodd;clip-rule:evenodd;fill:#FD9025;}
	.st7{fill:none;stroke:#FFFFFF;stroke-width:0.797;}
	.st8{fill:#DFEEFF;}
	.st9{fill:#040404;fill-opacity:6.000000e-02;}
	.st10{fill-rule:evenodd;clip-rule:evenodd;fill:#45A3B2;}
	.st11{fill-opacity:0.1;}
	.st12{fill:#262626;}
	.st13{fill-rule:evenodd;clip-rule:evenodd;fill:#C7E1FF;}
	.st14{fill:#070707;fill-opacity:8.000000e-02;}
	.st15{fill-opacity:6.000000e-02;}
	.st16{fill:#F9F9F9;}
	.st17{fill:#D8D2D2;fill-opacity:0.3;}
	.st18{fill:#C4C4C4;}
	.st19{fill:#D3D3D3;}
	.st20{fill:#F2F2F2;}
	.st21{fill:#C4C4C4;fill-opacity:0.42;}
	.st22{fill:#4671A4;}
	.st23{fill:#3581AC;}
	.st24{fill:#316891;}
	.st25{fill:none;stroke:#FFFFFF;stroke-width:1.1996;stroke-opacity:0.12;}
	.st26{fill:none;stroke:#FFFFFF;stroke-width:1.1996;stroke-linecap:round;stroke-opacity:0.12;}
	.st27{fill:#C7E1FF;}
	.st28{fill-opacity:7.000000e-02;}
	.st29{fill:#0D0D0D;fill-opacity:0.12;}
	.st30{fill:#3675A3;}
	.st31{fill:#3A91C2;}
	.st32{fill:#FFFFFF;}
	.st33{fill:#0E1232;}
</style>
<path class="st0" d="M290.2,234.2v-7.9c0-0.8,0.6-1.4,1.4-1.5l42.6-1.5c0.8,0,1.5,0.6,1.5,1.5v9.4c0,0.8-0.7,1.5-1.5,1.5h-42.6
	C290.9,235.6,290.2,235,290.2,234.2z"/>
<path class="st1" d="M292.1,226.1l44.1-1.5v4.7v1.2v1.2v2.4h-44.1v-2.3v-2.3v-1.3V226.1z"/>
<path class="st2" d="M293,227.1l42.8-1.5 M292.1,228.3v-2.2l44.1-1.5v4.7 M292.1,228.3l40.8-1.3 M292.1,228.3v1.3 M292.1,229.6
	l37.7-1.3 M292.1,229.6v2.3v2.3h44.1v-2.4 M336.1,229.4l-42.4,1.3 M336.1,229.4v1.2 M336.1,231.8l-39.7,0.7 M336.1,231.8v-1.2
	 M336.1,230.6l-17.9,0.1"/>
<path class="st3" d="M335.8,222.6l-0.3-7.9c0-0.8-0.7-1.4-1.5-1.4l-42.7,0c-0.8,0-1.5,0.7-1.5,1.5l0.3,9.4c0,0.8,0.7,1.4,1.5,1.4
	l42.6-1.5C335.2,224,335.8,223.4,335.8,222.6z"/>
<path class="st1" d="M333.7,214.6l-44.1,0.1l0.2,4.7l0,1.2l0,1.2l0.1,2.4l44.1-1.5l-0.1-2.3l-0.1-2.3l0-1.3L333.7,214.6z"/>
<path class="st2" d="M332.8,215.6l-42.8,0 M333.7,216.8l-0.1-2.2l-44.1,0.1l0.2,4.7 M333.7,216.8l-40.8,0.1 M333.7,216.8l0,1.3
	 M333.8,218.1l-37.7,0 M333.8,218.1l0.1,2.3l0.1,2.3l-44.1,1.5l-0.1-2.4 M289.7,219.4l42.5-0.2 M289.7,219.4l0,1.2 M289.8,221.8
	l39.7-0.7 M289.8,221.8l0-1.2 M289.8,220.6l17.8-0.5"/>
<path class="st4" d="M294.6,212.6v-7.9c0-0.8,0.6-1.4,1.4-1.5l42.6-1.5c0.8,0,1.5,0.6,1.5,1.5v9.4c0,0.8-0.7,1.5-1.5,1.5h-42.6
	C295.3,214,294.6,213.4,294.6,212.6z"/>
<path class="st1" d="M296.4,204.6l44.1-1.5v4.7v1.2v1.2v2.4h-44.1v-2.3V208v-1.3V204.6z"/>
<path class="st2" d="M297.3,205.5l42.8-1.5 M296.4,206.7v-2.2l44.1-1.5v4.7 M296.4,206.7l40.8-1.3 M296.4,206.7v1.3 M296.4,208
	l37.7-1.3 M296.4,208v2.3v2.3h44.1v-2.4 M340.5,207.8l-42.4,1.3 M340.5,207.8v1.2 M340.5,210.2l-39.7,0.7 M340.5,210.2V209
	 M340.5,209l-17.9,0.1"/>
<path class="st5" d="M57,109.4c-5.9,9.9-0.6,19.5,3.5,25.5l-2,14.1l-1.9,11.7h20.6v-9.8v-9.6c9.3,1.2,12.7-3.4,12.7-3.4
	s3.5-3.9,2.3-14.3c-0.3-2.9-1-6.4-2.3-10.4C82.6,90.5,64.6,96.7,57,109.4z M150.9,492.9v-18.3v-11.6l15.1-1.6l-5.6,31.5H150.9z
	 M205.9,504.5l-3.6-19.9l-2.8-9.6l14.7-3.2l2.8,31.1L205.9,504.5z M209,222c0,0,20.6-5.3,26.5-1.6c1.4,0.9,3.9,2.3,6.5,3.8
	c5.6,3.2,12.3,6.9,12,7.8c-0.5,1.9-5.5-0.6-10.4-2.9c-3.4-1.6-6.7-3.2-8.2-3.2c-3.6,0-11.8,3.3-11,3.3c1.2,0,16.7,3.8,12.1,4.5
	c-4.6,0.8-15.6-0.4-23.3-2.9l-4.4,0.8V222z"/>
<path class="st6" d="M29.7,284.1c3.8-131.6,29.9-137.5,35.4-137.5c22.7,2,74.2,61.1,74.2,61.1l71.3,12.7c7.8,3.7,4,11.1,1.6,11.1
	c0,0-69.4,2-81.8-1.5c-12.4-3.5-31.8-22.3-31.8-22.3s4.8,23.8,4.8,45.3c0,18.3,3.1,28.5,4.1,31.1h5.3c0,0,98.6,9.2,104.6,40.2
	c7.6,39.1,0,157,0,157l-20.7,4.1c-5.1-25-7.8-46.4-10.5-67.8c-0.1-1-0.2-2-0.4-2.9l-3.9,14.8L168.1,477h-22.7l13.2-118v-5.6
	c-24.1,4.2-68,9.2-96.2-3.6c-40.6-18.3-32.7-65.8-32.7-65.8H29.7z M143.2,503.4c-7.2,0,3.5-18,3.5-18c6.9,6.3,10.8,6.5,17.7,5.1
	c0,0,8.8,8.2,20,15.3c3.9,2.5,0,7.3,0,7.3S146.7,503.4,143.2,503.4z M202.7,516.8c-6.8-2.1,0-17.1,0-17.1c7.3,4.2,11.3,3.7,18.3,1.6
	c0,0,9,7.6,21.4,10.4c2.8,0.6,0,6.4,0,6.4S206.6,518,202.7,516.8z"/>
<path class="st7" d="M140.5,499.7c11.7,2.4,29.5,8,42.6,10.4"/>
<path class="st7" d="M141.3,497.3c11.7,2.4,14.3,3.6,21.1,5.2"/>
<path class="st7" d="M200.6,514.9c11.6,2,35.4-0.2,41.4,2.4"/>
<path class="st7" d="M200.2,512.5c7.2,0.8,13.9,0.8,19.9,0.8"/>
<path class="st8" d="M177.9,268l-4.5-16c-1.4-4.8,1.9-9.6,6.8-10c33.8-3.1,149.2-12.3,181.9,0.9c48.2,19.5-28.3,276-28.3,276h-66.9
	L243,273.8h-57.4C182,273.8,178.9,271.4,177.9,268z"/>
<path class="st9" d="M330.6,265.5l-33.1-28.8c0,0,25.5-4.8,64.6,6.1c50.1,14-28.3,276-28.3,276h-36.3l39.1-245.1l-4.6-6.7
	C331.5,266.5,331.1,266,330.6,265.5z"/>
<path class="st10" d="M29.6,284.1c0,0-8.7,49.2,32.7,65.8c33.6,13.4,73.6,8.4,96.2,3.7v5.5l-13.2,118h22.7l13.9-47.4l3.2-10.5
	c3.1,21.9,6.9,45.4,11.5,66.4l20.7-4.1c0,0,7.6-118,0-157c-6-31.1-105.3-40.2-105.3-40.2c-10.4,0-20.2,1.3-29.7,2.5
	C64.3,288.9,47.4,291.1,29.6,284.1z"/>
<path class="st11" d="M145.3,477l13.2-118v-6l17.8-4l5.7,34.7l4.3,31.9l-4.3,13.9L168.1,477H145.3z"/>
<path class="st12" d="M281.5,234.4l0.5-1.7l16.4-56.4c0.3-1.2-0.6-2.4-1.8-2.4c-0.8,0-1.6,0.6-1.8,1.4l-16.5,56.6
	c-0.4,1.3-1.6,2.2-2.9,2.3l-67.2,2.3c-0.4,0-0.7,0.2-1,0.4c-0.8,0.9-0.2,2.4,1.1,2.3l70.3-2.5C279.9,236.8,281.1,235.8,281.5,234.4z
	"/>
<path class="st13" d="M0,368.3l10.2-131.7c0.1-1.9,1.2-3.7,2.8-4.7c3.9-2.5,9.1,0,9.8,4.6c5.5,36.9,27.3,92.6,107.6,103.8
	c3.6,0.5,6.4,3.6,6.4,7.2V369c0,1.3-0.4,2.6-1.2,3.7c-4.2,5.3-19.9,22-55.8,25.3v107.3h23.1c4.4,0,8,3.6,8,8v1.6c0,4.4-3.6,8-8,8
	H41.6c-4.4,0-8-3.6-8-8v-1.6c0-4.4,3.6-8,8-8h24.7V398.6c-38-0.4-58.7-19.2-64.7-25.5C0.4,371.8-0.1,370,0,368.3z"/>
<path class="st14" d="M66.3,402.5l3.8,37.6l3.4,64.4h-7.2V402.5z"/>
<path class="st15" d="M9.9,240.4L0,368.3c-0.1,1.8,0.4,3.5,1.6,4.8c6.2,6.6,28.6,26.8,69.9,25.4c32.1-1,39.1-9.5,40.1-15.2
	c0.6-3.2-2.9-4.9-6.1-4.2l-33.2,8c-0.6,0.1-1.2,0.2-1.7,0.2c-82.4-0.5-49.3-76.6-54-146.9c-0.1-0.8-0.4-1.6-1.1-2.2
	C13.5,236.3,10.2,237.6,9.9,240.4z"/>
<path class="st16" d="M342.9,146.6H274h-8.4h-19.1c-15.8,0-28.7-12.8-28.7-28.7v-2.8c0-17.4,14.1-31.5,31.5-31.5h93.6
	c17.4,0,31.5,14.1,31.5,31.5C374.4,132.6,360.3,146.6,342.9,146.6z"/>
<path class="st17" d="M238.9,102L238.9,102c7.3,0,13.2,5.9,13.2,13.2v0c0,7.3-5.9,13.2-13.2,13.2l0,0c-7.3,0-13.2-5.9-13.2-13.2v0
	C225.7,107.9,231.6,102,238.9,102z"/>
<path class="st18" d="M238.5,106L238.5,106c1.8,0,3.2,1.4,3.2,3.2l0,0c0,1.8-1.4,3.2-3.2,3.2l0,0c-1.8,0-3.2-1.4-3.2-3.2l0,0
	C235.3,107.4,236.7,106,238.5,106z"/>
<path class="st19" d="M238.5,113.2L238.5,113.2c3.1,0,5.6,2.5,5.6,5.6l0,0c0,3.1-2.5,5.6-5.6,5.6h0c-3.1,0-5.6-2.5-5.6-5.6l0,0
	C232.9,115.7,235.4,113.2,238.5,113.2z"/>
<path class="st20" d="M272.9,106h23.7c4.9,0,8.9,4,8.9,8.9v0c0,4.9-4,8.9-8.9,8.9h-23.7c-4.9,0-8.9-4-8.9-8.9v0
	C264,110,268,106,272.9,106z"/>
<circle class="st18" cx="275.2" cy="114.9" r="2.4"/>
<circle class="st18" cx="284.7" cy="114.9" r="2.4"/>
<circle class="st18" cx="294.2" cy="114.9" r="2.4"/>
<path class="st16" d="M255.9,154.6l-5.3-6.9c-1.2-1.6-0.1-3.8,1.9-3.8h9.6c1.9,0,3,2.1,2,3.6l-4.3,6.9
	C259,155.9,256.9,156,255.9,154.6z"/>
<path class="st16" d="M431.4,63h-68.9h-8.4h-19.1c-15.8,0-28.7-12.8-28.7-28.7v-2.8c0-17.4,14.1-31.5,31.5-31.5h93.6
	c17.4,0,31.5,14.1,31.5,31.5C462.8,48.9,448.8,63,431.4,63z"/>
<path class="st17" d="M327.4,18.3L327.4,18.3c7.3,0,13.2,5.9,13.2,13.2v0c0,7.3-5.9,13.2-13.2,13.2l0,0c-7.3,0-13.2-5.9-13.2-13.2v0
	C314.2,24.2,320.1,18.3,327.4,18.3z"/>
<path class="st18" d="M327,22.3L327,22.3c1.8,0,3.2,1.4,3.2,3.2v0c0,1.8-1.4,3.2-3.2,3.2l0,0c-1.8,0-3.2-1.4-3.2-3.2v0
	C323.8,23.7,325.2,22.3,327,22.3z"/>
<path class="st19" d="M327,29.5L327,29.5c3.1,0,5.6,2.5,5.6,5.6l0,0c0,3.1-2.5,5.6-5.6,5.6h0c-3.1,0-5.6-2.5-5.6-5.6l0,0
	C321.4,32,323.9,29.5,327,29.5z"/>
<path class="st16" d="M470.1,32.8l-6.9,5.3c-1.6,1.2-3.8,0.1-3.8-1.9v-9.6c0-1.9,2.1-3,3.6-2l6.9,4.3
	C471.3,29.7,471.4,31.8,470.1,32.8z"/>
<path class="st21" d="M351.7,25.5h76.5c1.3,0,2.4,1.1,2.4,2.4v0c0,1.3-1.1,2.4-2.4,2.4h-76.5c-1.3,0-2.4-1.1-2.4-2.4v0
	C349.3,26.6,350.3,25.5,351.7,25.5z"/>
<path class="st21" d="M351.7,34.3h47c1.3,0,2.4,1.1,2.4,2.4v0c0,1.3-1.1,2.4-2.4,2.4h-47c-1.3,0-2.4-1.1-2.4-2.4v0
	C349.3,35.3,350.3,34.3,351.7,34.3z"/>
<path class="st22" d="M306.4,486.6c0,0-3.8-20.3-4.1-30.6c-0.5-21.6-32.1-29.1-24.9-49.5c2.9-8.2,9.2-10.3,13.2-18
	c16.6-32-35.9-58.5-18.9-90.3c6.9-12.9,11.1-27.9,25.8-27.3c17.5,0.7-2.5,40.6,15,40.6c14.4,0,21-38.3,27.3-27.4l16.2,27.9
	c6.3,10.9-17.7,28.6-16.2,48.6c1.3,16.2,16.8,22.1,16.2,38.4c-0.4,9-7.3,13.2-6.3,22.2c0.7,6.4,5,9,6.3,15.3
	c4.5,22-36.7,50.1-36.7,50.1h-6.8H306.4z"/>
<path class="st23" d="M303.9,449.4c5.4,16.3,20.2,39.1,20.2,39.1h-4.7h-4.7c0,0-59.7-11.1-43.9-22.1c3.9-2.7,7.3-1.9,11.2-4.6
	c19.1-12.9-55.8-34.4-36.2-46.4c3.7-2.3,6.8-1.5,10.4-4c9.1-6.1-0.7-25.7,10.2-26c8.3-0.2,10,19.5,18.3,20.4
	c6.5,0.7,6.2-11.5,12.7-12.1C319.2,392,297,428.7,303.9,449.4z"/>
<path class="st24" d="M345.3,430.2c-7.7,23.5-29.1,56.4-29.1,56.4h6.7h6.7c0,0,86-16.1,63.3-31.8c-5.6-3.9-10.5-2.8-16.2-6.6
	c-27.5-18.5,80.4-49.5,52.2-66.9c-5.3-3.3-9.8-2.2-15-5.7c-13-8.8,1-37-14.7-37.5c-12-0.3-10.5,19.8-22.5,21c-9.3,1-12.9-8.2-22.2-9
	C323.3,347.5,355.2,400.3,345.3,430.2z"/>
<path class="st25" d="M312.7,486.6c7.2-11.3,18.2-39.3,4.5-61.2c-7.9-10.4-17.3-36.9,8.1-61.2 M325.2,364.2c9-10.8,15.2-35.9,9-45.3
	 M325.2,364.2c2.1-19.5-2.7-37.5-12.9-47.1 M325.2,364.2c-7.4-7.1-19.5-19.8-28.2-30.6 M286.6,317.2c0.8,3.7,5,9.8,10.5,16.5
	 M297,333.7c3.4-4.8,7.3-17.8-4.5-31.5"/>
<path class="st25" d="M318.7,488.1c-3.3-4.5-7.2-10.1-11.5-16.2 M272.8,411.9c0.4,5.8,8.1,19.8,17.7,34.8 M290.5,446.8
	c-2-6.1-4.6-20.4,1.2-28.5 M290.5,446.8c5.3,8.4,11.2,17.2,16.7,25.1 M307.2,471.9c-3.1-3.2-11.9-8.3-22.4-3.3"/>
<path class="st26" d="M323.4,487.2c4.9-6.8,10.9-15.2,17.2-24.3 M389.7,378c0.6,6.4-10.6,26.4-24.8,48.6 M340.7,462.9
	c4.2-4.7,16.3-12.4,31.7-5.4 M340.7,462.9c8-11.5,16.6-24.2,24.3-36.3 M364.9,426.6c2.6-8.7,6-29.1-1-41.4"/>
<path class="st27" d="M353.1,484.5h-56.7c0,0-7.2,34.2,31.5,34.2C357.9,518.7,353.1,484.5,353.1,484.5z"/>
<path class="st28" d="M330.9,518.1c8.8-9,11.9-15.4,9.6-33.3h12.3C355.5,510.6,340.5,518.1,330.9,518.1z"/>
<path class="st22" d="M328.6,193.5c-6-7.7-14.7-27-1.4-42.8C331.8,158.7,338.5,178.7,328.6,193.5z"/>
<path class="st29" d="M328.6,193.5c-2-11.3-5.2-35.7-1.4-42.7C331.8,159,338.6,179.1,328.6,193.5z"/>
<path class="st30" d="M327.4,197.9c-1.2-8.2,0.6-26,17-32C344.4,173.8,340.9,191.3,327.4,197.9z"/>
<path class="st29" d="M327.4,197.9c3.3-9.1,11.3-28.4,17-31.9C344.3,174,340.8,191.6,327.4,197.9z"/>
<path class="st31" d="M327.7,198.1c0.9-6.1-0.5-19.5-12.8-24C315,180.1,317.6,193.2,327.7,198.1z"/>
<path class="st29" d="M327.7,198.1c-2.5-6.8-8.5-21.3-12.8-23.9C315,180.2,317.6,193.4,327.7,198.1z"/>
<path class="st27" d="M334.5,195.1h-17.8l3.2,6.4h18.2l2.9-6.4H334.5z"/>
<path class="st28" d="M332.3,201.5l2.2-6.4h6.6l-2.9,6.4H332.3z"/>
<g>
	<polygon class="st32" points="71.7,210.5 60.7,199.5 50.2,210 50.2,206.6 60.7,196.2 71.7,207.2 83.1,195.7 83.1,199.2 	"/>
</g>
<path class="st33" d="M42.3,105.5c-2-36.4,44-17.5,44-7.5c1.2,4.8-5.8,11.8-10.5,17.5c0,0-1,3.5,0,8.5c0.4,2.2-4.5-3.5-4.5-3.5
	c-10-2,3.5,13-7,25.5c-5.5,6.5-6,43.2-6,47.5c0,32-7,35.5-22.5,35.5c-24.8,0-25.7-38.8-9.5-55.5C42.3,161.5,44.3,141.9,42.3,105.5z"
	/>
</svg>
